<svg width="200" height="200" viewBox="0 0 100 100" fill="none" xmlns="http://www.w3.org/2000/svg">
                                <defs>
                                    <linearGradient id="logo-gradient" x1="0%" y1="0%" x2="100%" y2="100%">
                                        <stop offset="0%" style="stop-color:#a78bfa;stop-opacity:1"></stop>
                                        <stop offset="70%" style="stop-color:#f472b6;stop-opacity:1"></stop>
                                        <stop offset="100%" style="stop-color:#f87171;stop-opacity:1"></stop>
                                    </linearGradient>
                                </defs>
                                <path fill="url(#logo-gradient)" d="M50,0 C77.61,0 100,22.39 100,50 C100,77.61 77.61,100 50,100 C22.39,100 0,77.61 0,50 C0,22.39 22.39,0 50,0 Z M50,15 C30.67,15 15,30.67 15,50 C15,69.33 30.67,85 50,85 C69.33,85 85,69.33 85,50 C85,30.67 69.33,15 50,15 Z M62.5,25 L37.5,25 L37.5,50 L62.5,50 C69.4,50 75,44.4 75,37.5 C75,30.6 69.4,25 62.5,25 Z"></path>
                            </svg>